<svg xmlns="http://www.w3.org/2000/svg" xmlns:xlink="http://www.w3.org/1999/xlink" version="1.0" x="0px" y="0px" width="100px" height="100px" viewBox="0 0 100 100" enable-background="new 0 0 100 100" xml:space="preserve">
<g id="Captions">
	<rect x="-192" width="185" height="99"/>
	<rect y="-36" width="100" height="30"/>
	<text transform="matrix(1 0 0 1 66 -19.5)" fill="#000000" font-family="'Helvetica'" font-size="2.4">http://thenounproject.com</text>
	<text transform="matrix(1 0 0 1 7.166 -24.5)"><tspan x="0" y="0" fill="#000000" font-family="'Helvetica-Bold'" font-size="6.1578">The Noun Project</tspan><tspan x="1.12" y="4.8" fill="#000000" font-family="'Helvetica-Bold'" font-size="4">Icon Template</tspan></text>
	<text transform="matrix(1 0 0 1 -178.5 10.5)" fill="#000000" font-family="'Helvetica-Bold'" font-size="6.1578">Reminders</text>
	<line fill="#000000" stroke="#FFFFFF" stroke-miterlimit="10" x1="8" y1="-14.5" x2="18" y2="-14.5"/>
	<line fill="#000000" stroke="#FFFFFF" stroke-miterlimit="10" x1="-179" y1="16.5" x2="-162" y2="16.5"/>
	<g>
		<g>
			<g>
				<rect x="-170.802" y="31.318" fill="#000000" width="8.721" height="8.642"/>
				<path fill="#000000" d="M-164.455,42.312h4.747v-4.703h-4.747V42.312z M-159.266,42.749h-5.63V37.17h5.63V42.749      L-159.266,42.749z M-166.221,44.062h8.279v-8.203h-8.279V44.062L-166.221,44.062z M-157.5,44.5h-9.163v-9.079h9.163V44.5      L-157.5,44.5z"/>
				<polygon fill="#000000" points="-166.149,44.133 -166.292,43.991 -158.013,35.787 -157.871,35.929     "/>
			</g>
		</g>
	</g>
	<rect x="-179" y="58" fill="none" width="35" height="32.5"/>
	<text transform="matrix(1 0 0 1 -179 60.1572)"><tspan x="0" y="0" fill="#000000" font-family="'Helvetica-Bold'" font-size="3">Strokes</tspan><tspan x="0" y="5" fill="#000000" font-family="'Helvetica'" font-size="2.4">Try to keep strokes at 4px</tspan><tspan x="0" y="10" fill="#000000" font-family="'Helvetica'" font-size="2.4">Minimum stroke weight is 2px</tspan><tspan x="0" y="14.5" fill="#000000" font-family="'Helvetica'" font-size="2.4">For thicker strokes use even </tspan><tspan x="0" y="17.5" fill="#000000" font-family="'Helvetica'" font-size="2.4">numbers: 6px, 8px etc.</tspan><tspan x="0" y="22" fill="#000000" font-family="'Helvetica-Bold'" font-size="2.4">Remember to expand strokes </tspan><tspan x="0" y="25" fill="#000000" font-family="'Helvetica-Bold'" font-size="2.4">before saving as an SVG </tspan></text>
	<rect x="-136.5" y="58" fill="none" width="35" height="32.5"/>
	<text transform="matrix(1 0 0 1 -136.5 60.1572)"><tspan x="0" y="0" fill="#000000" font-family="'Helvetica-Bold'" font-size="3">Size</tspan><tspan x="0" y="5" fill="#000000" font-family="'Helvetica'" font-size="2.4">Cannot be wider or taller than </tspan><tspan x="0" y="8.5" fill="#000000" font-family="'Helvetica'" font-size="2.4">100px (artboard size)</tspan><tspan x="0" y="13.5" fill="#000000" font-family="'Helvetica'" font-size="2.4">Scale your icon to fill as much of </tspan><tspan x="0" y="16.5" fill="#000000" font-family="'Helvetica'" font-size="2.4">the artboard as possible</tspan></text>
	<rect x="-94" y="58" fill="none" width="35" height="32.5"/>
	<text transform="matrix(1 0 0 1 -94 60.1572)"><tspan x="0" y="0" fill="#000000" font-family="'Helvetica-Bold'" font-size="3">Ungroup</tspan><tspan x="0" y="5" fill="#000000" font-family="'Helvetica'" font-size="2.4">If your design has more than one </tspan><tspan x="0" y="8" fill="#000000" font-family="'Helvetica'" font-size="2.4">shape, make sure to ungroup</tspan></text>
	<rect x="-50" y="58" fill="none" width="35" height="32.5"/>
	<text transform="matrix(1 0 0 1 -50 60.1572)"><tspan x="0" y="0" fill="#000000" font-family="'Helvetica-Bold'" font-size="3">Save as</tspan><tspan x="0" y="5" fill="#000000" font-family="'Helvetica'" font-size="2.4">Save as .SVG and make sure </tspan><tspan x="0" y="8" fill="#000000" font-family="'Helvetica'" font-size="2.4">&#8220;Use Artboards&#8221; is checked</tspan></text>
	<text transform="matrix(1.0074 0 0 1 -125.542 30.5933)" fill="#000000" font-family="'Helvetica'" font-size="2.5731">100px</text>
	<text transform="matrix(1.0074 0 0 1 -41 39)" fill="#000000" font-family="'Helvetica-Bold'" font-size="5.1462">.SVG</text>
	<rect x="-126.514" y="34.815" fill="#000000" width="10.261" height="10.185"/>
	<rect x="-126.477" y="31.766" fill="#000000" width="0.522" height="2.337"/>
	<rect x="-116.812" y="31.766" fill="#000000" width="0.523" height="2.337"/>
	<rect x="-127" y="32.337" fill="#000000" width="11.233" height="0.572"/>
	<g>
		<rect x="-83.805" y="33.844" fill="#000000" width="10.305" height="10.156"/>
		<rect x="-76.809" y="28.707" fill="#000000" width="3.308" height="3.261"/>
	</g>
	<rect x="-178.5" y="22.5" fill="#000000" stroke="#FFFFFF" stroke-miterlimit="10" width="30" height="30"/>
	<rect x="-136.5" y="22.5" fill="#000000" stroke="#FFFFFF" stroke-miterlimit="10" width="30" height="30"/>
	<rect x="-93.5" y="22.5" fill="#000000" stroke="#FFFFFF" stroke-miterlimit="10" width="30" height="30"/>
	<rect x="-49.5" y="22.5" fill="#000000" stroke="#FFFFFF" stroke-miterlimit="10" width="30" height="30"/>
</g>
<g id="Your_Icon">
	<g>
		<path fill="#000000" d="M87.581,68.476L59.616,86.639c-1.386,0.9-3.205,1.397-5.121,1.397c-1.902,0-3.71-0.489-5.092-1.377    L8.913,63.49l-0.031-0.019l-0.029-0.02c-0.413-0.269-0.774-0.571-1.088-0.898v6.796c0,0.001,0,0.001,0,0.002v0.003    c0.001,1.049,0.613,2.097,1.838,2.899l40.519,23.301c2.452,1.604,6.426,1.604,8.878,0l27.964-18.278    c1.225-0.802,1.837-1.852,1.839-2.9v-0.002c0-0.001,0-0.001,0-0.002v-6.944C88.459,67.812,88.056,68.165,87.581,68.476z"/>
		<path fill="#000000" d="M9.537,62.399l40.52,23.187c1.225,0.796,2.832,1.194,4.438,1.194c1.604,0,3.212-0.398,4.438-1.194    l27.963-18.164c2.451-1.595,2.451-4.176,0-5.769L47.532,39.129c-0.04,1.825-0.103,3.649-0.167,5.475l19.276,10.229    c0.1,0.053,0.162,0.152,0.166,0.265s-0.051,0.218-0.146,0.278L43.603,69.891c-0.05,0.03-0.108,0.047-0.167,0.047    c-0.05,0-0.101-0.013-0.147-0.036L18.745,56.873c-0.1-0.055-0.164-0.154-0.167-0.268c-0.004-0.111,0.053-0.217,0.146-0.276    L36.71,45.011c-0.003-2.003-0.024-4.007-0.028-6.011L9.537,56.632C7.087,58.225,7.087,60.807,9.537,62.399z M72.14,59.877    c3.763,0,6.855,1.848,7.212,4.21c-0.526,2.058-3.797,3.644-7.212,3.644c-3.449,0-6.723-1.614-7.2-3.702    C65.336,61.694,68.405,59.877,72.14,59.877z M64.893,64.553c0.774,2.174,3.715,3.805,7.247,3.805c3.534,0,6.473-1.631,7.247-3.806    v1.959c0,2.577-3.244,4.666-7.247,4.666c-4.004,0-7.247-2.089-7.247-4.666V64.553z M57.691,69.096c3.994,0,7.23,2.081,7.245,4.651    c-0.41,2.125-3.77,3.778-7.261,3.778c-3.494,0-6.82-1.654-7.229-3.778C50.46,71.177,53.697,69.096,57.691,69.096z M50.445,74.402    c0.803,2.146,3.725,3.75,7.231,3.75c3.562,0,6.518-1.657,7.262-3.856v1.434c0,2.578-3.243,4.667-7.246,4.667    s-7.247-2.089-7.247-4.667V74.402z"/>
		<path fill="#000000" d="M55.687,51.895c-1.979,1.274-3.948,2.563-5.949,3.805l-6.125,3.844c-0.162,0.104-0.358,0.109-0.52,0.032    l-0.011-0.005c-2.351-1.11-4.668-2.285-7.003-3.425l-6.508-3.325c-0.92,0.539-1.828,1.097-2.751,1.632    c1.232,0.678,2.458,1.366,3.708,2.009c1.422,0.751,2.848,1.497,4.292,2.205c2.8,1.366,5.651,2.631,8.465,3.97    c1.232-0.798,2.47-1.586,3.732-2.334l4.016-2.411c1.341-0.799,2.709-1.558,4.062-2.339c1.266-0.714,2.541-1.409,3.83-2.086    c-0.493-0.235-0.991-0.464-1.479-0.705L55.687,51.895z"/>
		<path fill="#000000" d="M47.592,61.233c-1.309,0.849-2.645,1.658-3.989,2.453l-0.022,0.012c-0.158,0.094-0.348,0.092-0.498,0.009    c-2.827-1.536-5.61-3.16-8.449-4.676c-1.42-0.752-2.861-1.47-4.304-2.181c-1.405-0.713-2.84-1.362-4.263-2.041    c-0.92,0.554-1.839,1.114-2.766,1.658c0.354,0.199,0.707,0.399,1.058,0.599c1.173,0.666,2.349,1.33,3.539,1.964l2.575,1.398    c0.858,0.467,1.733,0.9,2.599,1.351c3.143,1.647,6.358,3.165,9.534,4.753c0.226,0.113,0.455,0.223,0.68,0.336    c0.101-0.062,0.2-0.127,0.301-0.192c1.43-0.918,2.848-1.857,4.304-2.733l4.899-3.003c1.634-0.998,3.297-1.951,4.943-2.932    c1.622-0.946,3.254-1.872,4.9-2.777c-1.179-0.562-2.36-1.124-3.54-1.685c-1.205,0.873-2.424,1.728-3.654,2.561    c-1.301,0.865-2.587,1.753-3.9,2.6L47.592,61.233z"/>
		<path fill="#000000" d="M43.422,69.261l22.445-14.129l-18.528-9.83c-0.012,0.342-0.024,0.684-0.036,1.027l0.222,0.121l5.122,2.848    l5.096,2.899c1.697,0.968,3.37,1.983,5.055,2.974c0.031,0.017,0.041,0.058,0.024,0.088c-0.005,0.008-0.012,0.016-0.021,0.021    c-1.557,1.118-3.134,2.211-4.722,3.286c-1.593,1.061-3.173,2.147-4.778,3.188l-4.827,3.119c-1.6,1.054-3.252,2.023-4.877,3.038    l-0.008,0.007c-0.161,0.101-0.36,0.099-0.514,0.013c-3.417-1.895-6.77-3.912-10.21-5.764c-0.859-0.463-1.708-0.946-2.576-1.396    l-2.601-1.349c-1.727-0.913-3.489-1.757-5.233-2.639c-0.167-0.085-0.234-0.289-0.149-0.457c0.027-0.054,0.066-0.096,0.111-0.127    l0.016-0.011c3.177-2.142,6.373-4.256,9.594-6.328c1.559-1.005,3.119-2.013,4.681-3.016c0.004-0.363,0.001-0.728,0.001-1.092    L19.519,56.57L43.422,69.261z"/>
		<path fill="#000000" d="M36.977,50.382c0,0.035-0.03,0.062-0.064,0.06c-0.034-0.001-0.059-0.028-0.061-0.06    c0,0-0.038-0.977-0.095-2.55c-2.264,1.446-4.516,2.908-6.752,4.398l6.526,2.98c2.252,1.08,4.521,2.131,6.762,3.232l5.931-3.579    c1.882-1.147,3.789-2.254,5.689-3.369c-2.554-1.439-5.09-2.906-7.611-4.401c-0.012,1.941-0.02,3.288-0.02,3.288    c-0.001,0.035-0.031,0.062-0.065,0.06c-0.033-0.001-0.058-0.028-0.06-0.06c0,0-0.009-1.736-0.025-4.115    c-0.085-2.56-0.192-5.12-0.242-7.681l-0.176-8.389l-0.112-7.754c-0.928,0.449-1.959,0.79-3.077,0.949    c-0.436,0.047-0.863,0.088-1.333,0.091c-0.437-0.023-0.867-0.013-1.337-0.097c-0.934-0.103-1.828-0.382-2.716-0.745    c-0.237-0.101-0.46-0.233-0.689-0.355c-0.033,2.722-0.076,5.443-0.14,8.165l-0.162,8.516c-0.005,2.307-0.038,4.613-0.03,6.92    h0.021c-0.006,0.198-0.014,0.38-0.02,0.569c0.002,0.342-0.003,0.684,0.001,1.027c0,0.03-0.028,0.046-0.041,0.072    C37.021,49.292,36.977,50.382,36.977,50.382z"/>
		<path fill="#000000" d="M34.347,18.445c1.016,1.559,2.466,2.793,4.087,3.533c0.811,0.353,1.664,0.641,2.499,0.75    c0.406,0.089,0.86,0.092,1.292,0.125c0.397,0.008,0.831-0.006,1.235-0.032c1.64-0.157,3.148-0.712,4.377-1.487    c1.23-0.78,2.169-1.774,2.84-2.754c0.693-0.976,1.062-1.969,1.291-2.79c0.232-0.827,0.308-1.495,0.334-1.957    c0.023-0.461,0.037-0.707,0.037-0.707s-0.021-0.242-0.055-0.699c-0.037-0.455-0.128-1.127-0.381-1.941    c-0.244-0.811-0.637-1.786-1.349-2.727c-0.257-0.353-0.568-0.701-0.901-1.042c-0.456-2.269-3.4-4.027-6.961-4.027    c-3.397,0-6.238,1.599-6.888,3.717c-0.482,0.454-0.938,0.94-1.325,1.495c-0.517,0.755-0.916,1.594-1.215,2.473    c-0.28,0.892-0.413,1.782-0.454,2.753c0.011,0.938,0.121,1.875,0.377,2.777C33.466,16.802,33.844,17.662,34.347,18.445z     M36.292,7.33c0-2.211,2.873-4.011,6.401-4.011c3.531,0,6.403,1.799,6.403,4.011v0.251c-0.944,1.568-3.621,2.702-6.403,2.702    c-2.804,0-5.484-1.151-6.401-2.739V7.33z M36.292,7.989c1.024,1.679,3.492,2.876,6.401,2.876c2.91,0,5.378-1.197,6.403-2.877    v1.165c0,2.212-2.872,4.012-6.403,4.012c-3.528,0-6.401-1.8-6.401-4.012V7.989z"/>
	</g>
</g>
</svg>