<svg xmlns="http://www.w3.org/2000/svg" xmlns:xlink="http://www.w3.org/1999/xlink" version="1.1" x="0px" y="0px" width="100px" height="100px" viewBox="0 0 100 100" enable-background="new 0 0 100 100" xml:space="preserve">
<g id="Captions">
</g>
<g id="Your_Icon">
	<g>
		<path d="M78.355,15.511C71.277,7.771,61.204,3.333,50.721,3.333S30.167,7.771,23.087,15.511l1.509,1.812    C18.933,23.512,15,31.749,15,40.779V73h6V40.779c0-7.646,3.067-14.619,7.862-19.858l2.025,1.789C35.952,17.175,43.19,14,50.687,14    c7.497,0,14.719,3.175,19.782,8.708l1.38-1.788C76.643,26.16,79,33.133,79,40.779V73h6V40.779c0-9.031-3.213-17.267-8.875-23.456    L78.355,15.511z"/>
		<path d="M87,37.33v35.449c7,0,11-4.975,11-11.111V48.44C98,42.305,94,37.33,87,37.33z"/>
		<path d="M46.749,85h-7.942c-3.293,0-5.973,2.705-5.973,5.998c0,0.695,0.142,0.002,0.362,2.002H19.488C14.103,93,9,87.855,9,82.47    V72.188c1,0.378,2,0.591,4,0.591V37.33c-7,0-12,4.975-12,11.11v13.227c0,3.213,2,6.102,4,8.13V82.47C5,90.06,11.898,97,19.488,97    h19.318h0.157h7.785c3.293,0,5.973-2.707,5.973-6.002C52.722,87.705,50.042,85,46.749,85z"/>
	</g>
</g>
</svg>