<svg xmlns="http://www.w3.org/2000/svg" xmlns:xlink="http://www.w3.org/1999/xlink" version="1.1" id="Layer_1" x="0px" y="0px" width="100px" height="100px" viewBox="0 0 100 100" enable-background="new 0 0 100 100" xml:space="preserve">
<g>
	<path fill="#000000" d="M92.064,55.254c3.544-3.444,4.515-7.087,4.515-10.032c0-2.169-0.527-4.717-2.22-7.285   c0.298-1.148,0.416-2.251,0.416-3.27c0-4.871-2.641-11.649-15.22-16.281c-7.744-2.852-18.081-4.422-29.104-4.422   s-21.36,1.57-29.105,4.422C8.768,23.018,6.127,29.796,6.127,34.667c0,2.169,0.527,4.717,2.219,7.285   c-0.269,1.04-0.39,2.04-0.411,2.976c-3.544,3.444-4.515,7.086-4.515,10.032c0,2.433,0.659,5.341,2.885,8.22   c-0.124,0.748-0.179,1.47-0.179,2.153c0,4.871,2.641,11.649,15.219,16.281c7.745,2.852,18.082,4.422,29.105,4.422   s21.36-1.57,29.104-4.422c12.579-4.632,15.22-11.41,15.22-16.281c0-2.433-0.659-5.341-2.885-8.22   C91.997,56.472,92.051,55.85,92.064,55.254z M90.775,65.333c0,11.136-20.162,16.703-40.324,16.703   c-19.152,0-38.291-5.027-40.162-15.075c2.119,1.535,4.849,2.991,8.351,4.28c7.745,2.852,18.082,4.422,29.105,4.422   s21.36-1.57,29.104-4.422c7.229-2.662,11.172-6.033,13.222-9.344C90.523,62.979,90.775,64.121,90.775,65.333z M7.421,54.96   c0-1.769,0.512-3.396,1.449-4.883c0.573,1.421,1.453,2.886,2.755,4.329c0.432,0.479,0.912,0.954,1.441,1.425   c0.485,0.433,1.011,0.861,1.585,1.284c2.139,1.574,4.914,3.068,8.499,4.389c7.745,2.852,18.082,4.422,29.105,4.422   s21.36-1.57,29.104-4.422c2.243-0.826,4.165-1.722,5.818-2.661c-4.106,8.548-21.769,12.821-39.433,12.821   c-15.24,0-30.474-3.184-37.006-9.546c-0.546-0.532-1.03-1.086-1.45-1.663c-0.478-0.657-0.865-1.344-1.164-2.059   C7.673,57.314,7.421,56.172,7.421,54.96z M10.127,34.667c0-11.135,20.162-16.703,40.324-16.703   c19.762,0,39.509,5.353,40.287,16.049c0.016,0.217,0.037,0.432,0.037,0.654c0,0.647-0.075,1.274-0.207,1.883   c-0.157,0.726-0.403,1.426-0.735,2.099c-0.859,1.736-2.282,3.292-4.149,4.673c-0.556,0.411-1.153,0.805-1.785,1.184   c-0.621,0.374-1.273,0.733-1.963,1.076c-1.761,0.875-3.734,1.65-5.871,2.327c-1.217,0.386-2.483,0.742-3.799,1.062   c-1.6,0.391-3.265,0.733-4.979,1.029c-5.297,0.912-11.065,1.37-16.835,1.37c-5.77,0-11.538-0.458-16.835-1.37   c-1.715-0.295-3.38-0.638-4.98-1.029c-1.315-0.321-2.581-0.677-3.798-1.062c-3.312-1.049-6.231-2.336-8.577-3.864   c-0.644-0.419-1.251-0.854-1.805-1.31c-0.564-0.464-1.074-0.948-1.537-1.449c-0.014-0.016-0.031-0.031-0.045-0.046   c-0.507-0.554-0.952-1.13-1.325-1.729c-0.429-0.688-0.756-1.409-0.994-2.156C10.281,36.497,10.127,35.604,10.127,34.667z    M92.579,45.222c0,1.769-0.513,3.396-1.448,4.883c-0.412,0.655-0.914,1.28-1.484,1.88c-0.479,0.504-1.01,0.99-1.592,1.456   c-0.037,0.029-0.076,0.058-0.114,0.087c-0.505,0.397-1.04,0.783-1.614,1.152c-0.604,0.388-1.251,0.758-1.927,1.114   c-7.731,4.084-19.934,6.13-32.145,6.13c-13.205,0-26.408-2.389-33.948-7.165c-0.652-0.413-1.256-0.846-1.819-1.294   c-0.566-0.451-1.082-0.92-1.551-1.406c-1.55-1.606-2.551-3.408-2.876-5.406c-0.042-0.256-0.073-0.515-0.092-0.777   c0.177,0.144,0.358,0.287,0.545,0.429c1.701,1.3,3.823,2.549,6.466,3.695c0.748,0.325,1.535,0.642,2.368,0.948   c0.111,0.041,0.228,0.079,0.34,0.119c1.009,0.363,2.06,0.704,3.15,1.024c7.238,2.123,16.171,3.278,25.615,3.278   s18.377-1.155,25.614-3.278c1.09-0.32,2.142-0.661,3.15-1.024c0.112-0.04,0.229-0.078,0.34-0.119   c0.833-0.307,1.62-0.624,2.368-0.948c1.228-0.532,2.34-1.087,3.354-1.659c0.615-0.346,1.192-0.699,1.734-1.057   c0.589-0.389,1.141-0.784,1.648-1.184c1.477-1.163,2.615-2.364,3.491-3.566C92.425,43.392,92.579,44.285,92.579,45.222z"/>
	<path fill="#000000" d="M37.875,33.901l2.092,0.625l5.852,1.749l3.468,1.036c0.374,0.112,0.759,0.167,1.145,0.167   s0.771-0.056,1.145-0.167l2.847-0.851l5.239-1.565l3.327-0.994c1.694-0.506,2.855-2.064,2.855-3.833v-0.672V27.37v-0.369   c0-0.6-0.143-1.172-0.386-1.69c-0.474-1.01-1.351-1.808-2.47-2.142L51.577,19.76c-0.373-0.112-0.759-0.167-1.145-0.167   s-0.771,0.056-1.145,0.167l-11.412,3.409c-1.319,0.394-2.306,1.428-2.683,2.7c-0.107,0.362-0.173,0.741-0.173,1.132v0.92v2.039   v0.108C35.021,31.836,36.181,33.395,37.875,33.901z M39.021,27.327v-0.326l7.877-2.353l3.535-1.056l3.141,0.938l7.973,2.381   l0.3,0.089v1.946v1.121l-11.413,3.41l-11.412-3.41v-0.721V27.327z"/>
</g>
</svg>